<mxfile host="app.diagrams.net" agent="Mozilla/5.0 (Windows NT 10.0; Win64; x64) AppleWebKit/537.36 (KHTML, like Gecko) Chrome/134.0.0.0 Safari/537.36" version="26.1.0">
  <diagram name="Page-1" id="smSf0cSJX5L8btVg0oV_">
    <mxGraphModel dx="1120" dy="460" grid="1" gridSize="10" guides="1" tooltips="1" connect="1" arrows="1" fold="1" page="1" pageScale="1" pageWidth="850" pageHeight="1100" math="0" shadow="0">
      <root>
        <mxCell id="0" />
        <mxCell id="1" parent="0" />
        <mxCell id="3ctJaNdtZ0v_ihHX1uUk-1" value="User" style="rounded=0;whiteSpace=wrap;html=1;" vertex="1" parent="1">
          <mxGeometry x="130" y="130" width="100" height="40" as="geometry" />
        </mxCell>
        <mxCell id="3ctJaNdtZ0v_ihHX1uUk-3" value="DOB" style="ellipse;whiteSpace=wrap;html=1;" vertex="1" parent="1">
          <mxGeometry y="140" width="100" height="50" as="geometry" />
        </mxCell>
        <mxCell id="3ctJaNdtZ0v_ihHX1uUk-4" value="Name" style="ellipse;whiteSpace=wrap;html=1;" vertex="1" parent="1">
          <mxGeometry x="40" y="60" width="100" height="50" as="geometry" />
        </mxCell>
        <mxCell id="3ctJaNdtZ0v_ihHX1uUk-5" value="&amp;nbsp;&lt;br&gt;User_ID&lt;div&gt;&lt;br/&gt;&lt;/div&gt;" style="ellipse;whiteSpace=wrap;html=1;" vertex="1" parent="1">
          <mxGeometry x="150" y="50" width="100" height="50" as="geometry" />
        </mxCell>
        <mxCell id="3ctJaNdtZ0v_ihHX1uUk-7" value="" style="ellipse;whiteSpace=wrap;html=1;" vertex="1" parent="1">
          <mxGeometry x="60" y="200" width="110" height="50" as="geometry" />
        </mxCell>
        <mxCell id="3ctJaNdtZ0v_ihHX1uUk-8" value="Email" style="ellipse;whiteSpace=wrap;html=1;" vertex="1" parent="1">
          <mxGeometry x="70" y="205" width="90" height="40" as="geometry" />
        </mxCell>
        <mxCell id="3ctJaNdtZ0v_ihHX1uUk-9" value="Timestamp" style="ellipse;whiteSpace=wrap;html=1;" vertex="1" parent="1">
          <mxGeometry x="660" y="205" width="100" height="50" as="geometry" />
        </mxCell>
        <mxCell id="3ctJaNdtZ0v_ihHX1uUk-10" value="Post" style="rounded=0;whiteSpace=wrap;html=1;" vertex="1" parent="1">
          <mxGeometry x="620" y="130" width="90" height="40" as="geometry" />
        </mxCell>
        <mxCell id="3ctJaNdtZ0v_ihHX1uUk-11" value="Content" style="ellipse;whiteSpace=wrap;html=1;" vertex="1" parent="1">
          <mxGeometry x="740" y="130" width="100" height="50" as="geometry" />
        </mxCell>
        <mxCell id="3ctJaNdtZ0v_ihHX1uUk-12" value="User_ID" style="ellipse;whiteSpace=wrap;html=1;" vertex="1" parent="1">
          <mxGeometry x="690" y="50" width="100" height="50" as="geometry" />
        </mxCell>
        <mxCell id="3ctJaNdtZ0v_ihHX1uUk-13" value="Post_ID" style="ellipse;whiteSpace=wrap;html=1;" vertex="1" parent="1">
          <mxGeometry x="560" y="40" width="100" height="50" as="geometry" />
        </mxCell>
        <mxCell id="3ctJaNdtZ0v_ihHX1uUk-14" value="Comment" style="rounded=0;whiteSpace=wrap;html=1;" vertex="1" parent="1">
          <mxGeometry x="200" y="360" width="100" height="40" as="geometry" />
        </mxCell>
        <mxCell id="3ctJaNdtZ0v_ihHX1uUk-15" value="&amp;nbsp;&lt;br&gt;User_ID&lt;div&gt;&lt;br/&gt;&lt;/div&gt;" style="ellipse;whiteSpace=wrap;html=1;" vertex="1" parent="1">
          <mxGeometry x="210" y="280" width="100" height="50" as="geometry" />
        </mxCell>
        <mxCell id="3ctJaNdtZ0v_ihHX1uUk-16" value="&lt;div&gt;Comment_Text&lt;/div&gt;" style="ellipse;whiteSpace=wrap;html=1;" vertex="1" parent="1">
          <mxGeometry x="150" y="430" width="100" height="50" as="geometry" />
        </mxCell>
        <mxCell id="3ctJaNdtZ0v_ihHX1uUk-17" value="&lt;div&gt;Post_ID&lt;/div&gt;" style="ellipse;whiteSpace=wrap;html=1;" vertex="1" parent="1">
          <mxGeometry x="70" y="380" width="100" height="50" as="geometry" />
        </mxCell>
        <mxCell id="3ctJaNdtZ0v_ihHX1uUk-18" value="&lt;div&gt;Comment_ID&lt;/div&gt;" style="ellipse;whiteSpace=wrap;html=1;" vertex="1" parent="1">
          <mxGeometry x="90" y="310" width="100" height="50" as="geometry" />
        </mxCell>
        <mxCell id="3ctJaNdtZ0v_ihHX1uUk-19" value="Like" style="rounded=0;whiteSpace=wrap;html=1;" vertex="1" parent="1">
          <mxGeometry x="560" y="360" width="100" height="40" as="geometry" />
        </mxCell>
        <mxCell id="3ctJaNdtZ0v_ihHX1uUk-20" value="&amp;nbsp;&lt;br&gt;User_ID&lt;div&gt;&lt;br/&gt;&lt;/div&gt;" style="ellipse;whiteSpace=wrap;html=1;" vertex="1" parent="1">
          <mxGeometry x="690" y="330" width="100" height="50" as="geometry" />
        </mxCell>
        <mxCell id="3ctJaNdtZ0v_ihHX1uUk-21" value="&lt;div&gt;Post_ID&lt;/div&gt;" style="ellipse;whiteSpace=wrap;html=1;" vertex="1" parent="1">
          <mxGeometry x="670" y="420" width="100" height="50" as="geometry" />
        </mxCell>
        <mxCell id="3ctJaNdtZ0v_ihHX1uUk-22" value="&lt;div&gt;Like_ID&lt;/div&gt;" style="ellipse;whiteSpace=wrap;html=1;" vertex="1" parent="1">
          <mxGeometry x="520" y="430" width="100" height="50" as="geometry" />
        </mxCell>
        <mxCell id="3ctJaNdtZ0v_ihHX1uUk-23" value="Create" style="rhombus;whiteSpace=wrap;html=1;" vertex="1" parent="1">
          <mxGeometry x="370" y="120" width="80" height="80" as="geometry" />
        </mxCell>
        <mxCell id="3ctJaNdtZ0v_ihHX1uUk-24" value="Has" style="rhombus;whiteSpace=wrap;html=1;" vertex="1" parent="1">
          <mxGeometry x="420" y="340" width="80" height="80" as="geometry" />
        </mxCell>
        <mxCell id="3ctJaNdtZ0v_ihHX1uUk-25" value="Have" style="rhombus;whiteSpace=wrap;html=1;" vertex="1" parent="1">
          <mxGeometry x="490" y="200" width="80" height="80" as="geometry" />
        </mxCell>
        <mxCell id="3ctJaNdtZ0v_ihHX1uUk-26" value="" style="endArrow=classic;html=1;rounded=0;exitX=1;exitY=0.75;exitDx=0;exitDy=0;entryX=0;entryY=0.5;entryDx=0;entryDy=0;" edge="1" parent="1" source="3ctJaNdtZ0v_ihHX1uUk-1" target="3ctJaNdtZ0v_ihHX1uUk-23">
          <mxGeometry width="50" height="50" relative="1" as="geometry">
            <mxPoint x="400" y="290" as="sourcePoint" />
            <mxPoint x="450" y="240" as="targetPoint" />
          </mxGeometry>
        </mxCell>
        <mxCell id="3ctJaNdtZ0v_ihHX1uUk-27" value="" style="endArrow=classic;html=1;rounded=0;exitX=1;exitY=0.5;exitDx=0;exitDy=0;entryX=0;entryY=0.75;entryDx=0;entryDy=0;" edge="1" parent="1" source="3ctJaNdtZ0v_ihHX1uUk-23" target="3ctJaNdtZ0v_ihHX1uUk-10">
          <mxGeometry width="50" height="50" relative="1" as="geometry">
            <mxPoint x="240" y="170" as="sourcePoint" />
            <mxPoint x="380" y="170" as="targetPoint" />
          </mxGeometry>
        </mxCell>
        <mxCell id="3ctJaNdtZ0v_ihHX1uUk-28" value="" style="endArrow=classic;html=1;rounded=0;entryX=1;entryY=0.5;entryDx=0;entryDy=0;exitX=0;exitY=0.5;exitDx=0;exitDy=0;" edge="1" parent="1" source="3ctJaNdtZ0v_ihHX1uUk-25" target="3ctJaNdtZ0v_ihHX1uUk-14">
          <mxGeometry width="50" height="50" relative="1" as="geometry">
            <mxPoint x="360" y="230" as="sourcePoint" />
            <mxPoint x="390" y="180" as="targetPoint" />
            <Array as="points">
              <mxPoint x="360" y="240" />
              <mxPoint x="360" y="380" />
            </Array>
          </mxGeometry>
        </mxCell>
        <mxCell id="3ctJaNdtZ0v_ihHX1uUk-29" value="" style="endArrow=classic;html=1;rounded=0;exitX=0.25;exitY=1;exitDx=0;exitDy=0;entryX=1;entryY=0.5;entryDx=0;entryDy=0;" edge="1" parent="1" source="3ctJaNdtZ0v_ihHX1uUk-10" target="3ctJaNdtZ0v_ihHX1uUk-25">
          <mxGeometry width="50" height="50" relative="1" as="geometry">
            <mxPoint x="260" y="190" as="sourcePoint" />
            <mxPoint x="400" y="190" as="targetPoint" />
            <Array as="points">
              <mxPoint x="643" y="240" />
            </Array>
          </mxGeometry>
        </mxCell>
        <mxCell id="3ctJaNdtZ0v_ihHX1uUk-30" value="" style="endArrow=classic;html=1;rounded=0;exitX=0.367;exitY=1;exitDx=0;exitDy=0;entryX=0.5;entryY=0;entryDx=0;entryDy=0;exitPerimeter=0;" edge="1" parent="1" source="3ctJaNdtZ0v_ihHX1uUk-10" target="3ctJaNdtZ0v_ihHX1uUk-24">
          <mxGeometry width="50" height="50" relative="1" as="geometry">
            <mxPoint x="270" y="200" as="sourcePoint" />
            <mxPoint x="450" y="330" as="targetPoint" />
            <Array as="points">
              <mxPoint x="653" y="290" />
              <mxPoint x="460" y="290" />
            </Array>
          </mxGeometry>
        </mxCell>
        <mxCell id="3ctJaNdtZ0v_ihHX1uUk-31" value="" style="endArrow=classic;html=1;rounded=0;entryX=0;entryY=0.5;entryDx=0;entryDy=0;" edge="1" parent="1" source="3ctJaNdtZ0v_ihHX1uUk-24" target="3ctJaNdtZ0v_ihHX1uUk-19">
          <mxGeometry width="50" height="50" relative="1" as="geometry">
            <mxPoint x="280" y="210" as="sourcePoint" />
            <mxPoint x="420" y="210" as="targetPoint" />
          </mxGeometry>
        </mxCell>
        <mxCell id="3ctJaNdtZ0v_ihHX1uUk-32" value="&lt;font style=&quot;font-size: 14px;&quot;&gt;1&lt;/font&gt;" style="text;html=1;align=center;verticalAlign=middle;resizable=0;points=[];autosize=1;strokeColor=none;fillColor=none;" vertex="1" parent="1">
          <mxGeometry x="425" y="300" width="30" height="30" as="geometry" />
        </mxCell>
        <mxCell id="3ctJaNdtZ0v_ihHX1uUk-33" value="&lt;font style=&quot;font-size: 14px;&quot;&gt;1&lt;/font&gt;" style="text;html=1;align=center;verticalAlign=middle;resizable=0;points=[];autosize=1;strokeColor=none;fillColor=none;" vertex="1" parent="1">
          <mxGeometry x="280" y="130" width="30" height="30" as="geometry" />
        </mxCell>
        <mxCell id="3ctJaNdtZ0v_ihHX1uUk-34" value="&lt;font style=&quot;font-size: 14px;&quot;&gt;1&lt;/font&gt;" style="text;html=1;align=center;verticalAlign=middle;resizable=0;points=[];autosize=1;strokeColor=none;fillColor=none;" vertex="1" parent="1">
          <mxGeometry x="610" y="205" width="30" height="30" as="geometry" />
        </mxCell>
        <mxCell id="3ctJaNdtZ0v_ihHX1uUk-35" value="&lt;font style=&quot;font-size: 14px;&quot;&gt;M&lt;/font&gt;" style="text;html=1;align=center;verticalAlign=middle;resizable=0;points=[];autosize=1;strokeColor=none;fillColor=none;" vertex="1" parent="1">
          <mxGeometry x="510" y="350" width="40" height="30" as="geometry" />
        </mxCell>
        <mxCell id="3ctJaNdtZ0v_ihHX1uUk-36" value="&lt;font style=&quot;font-size: 14px;&quot;&gt;M&lt;/font&gt;" style="text;html=1;align=center;verticalAlign=middle;resizable=0;points=[];autosize=1;strokeColor=none;fillColor=none;" vertex="1" parent="1">
          <mxGeometry x="320" y="330" width="40" height="30" as="geometry" />
        </mxCell>
        <mxCell id="3ctJaNdtZ0v_ihHX1uUk-37" value="&lt;font style=&quot;font-size: 14px;&quot;&gt;M&lt;/font&gt;" style="text;html=1;align=center;verticalAlign=middle;resizable=0;points=[];autosize=1;strokeColor=none;fillColor=none;" vertex="1" parent="1">
          <mxGeometry x="520" y="130" width="40" height="30" as="geometry" />
        </mxCell>
        <mxCell id="3ctJaNdtZ0v_ihHX1uUk-38" value="" style="endArrow=none;html=1;rounded=0;entryX=0.5;entryY=1;entryDx=0;entryDy=0;" edge="1" parent="1" source="3ctJaNdtZ0v_ihHX1uUk-1" target="3ctJaNdtZ0v_ihHX1uUk-5">
          <mxGeometry width="50" height="50" relative="1" as="geometry">
            <mxPoint x="400" y="290" as="sourcePoint" />
            <mxPoint x="450" y="240" as="targetPoint" />
          </mxGeometry>
        </mxCell>
        <mxCell id="3ctJaNdtZ0v_ihHX1uUk-39" value="" style="endArrow=none;html=1;rounded=0;entryX=1;entryY=1;entryDx=0;entryDy=0;exitX=0.25;exitY=0;exitDx=0;exitDy=0;" edge="1" parent="1" source="3ctJaNdtZ0v_ihHX1uUk-1" target="3ctJaNdtZ0v_ihHX1uUk-4">
          <mxGeometry width="50" height="50" relative="1" as="geometry">
            <mxPoint x="198" y="140" as="sourcePoint" />
            <mxPoint x="210" y="110" as="targetPoint" />
          </mxGeometry>
        </mxCell>
        <mxCell id="3ctJaNdtZ0v_ihHX1uUk-40" value="" style="endArrow=none;html=1;rounded=0;" edge="1" parent="1" source="3ctJaNdtZ0v_ihHX1uUk-7">
          <mxGeometry width="50" height="50" relative="1" as="geometry">
            <mxPoint x="208" y="150" as="sourcePoint" />
            <mxPoint x="173" y="170" as="targetPoint" />
          </mxGeometry>
        </mxCell>
        <mxCell id="3ctJaNdtZ0v_ihHX1uUk-41" value="" style="endArrow=none;html=1;rounded=0;entryX=0;entryY=1;entryDx=0;entryDy=0;" edge="1" parent="1">
          <mxGeometry width="50" height="50" relative="1" as="geometry">
            <mxPoint x="100" y="168" as="sourcePoint" />
            <mxPoint x="130" y="165" as="targetPoint" />
          </mxGeometry>
        </mxCell>
        <mxCell id="3ctJaNdtZ0v_ihHX1uUk-42" value="" style="endArrow=none;html=1;rounded=0;entryX=0.5;entryY=1;entryDx=0;entryDy=0;exitX=0.6;exitY=-0.025;exitDx=0;exitDy=0;exitPerimeter=0;" edge="1" parent="1" source="3ctJaNdtZ0v_ihHX1uUk-14" target="3ctJaNdtZ0v_ihHX1uUk-15">
          <mxGeometry width="50" height="50" relative="1" as="geometry">
            <mxPoint x="250" y="350" as="sourcePoint" />
            <mxPoint x="240" y="140" as="targetPoint" />
          </mxGeometry>
        </mxCell>
        <mxCell id="3ctJaNdtZ0v_ihHX1uUk-43" value="" style="endArrow=none;html=1;rounded=0;entryX=0.94;entryY=0.74;entryDx=0;entryDy=0;exitX=0.16;exitY=0.125;exitDx=0;exitDy=0;exitPerimeter=0;entryPerimeter=0;" edge="1" parent="1">
          <mxGeometry width="50" height="50" relative="1" as="geometry">
            <mxPoint x="216" y="359" as="sourcePoint" />
            <mxPoint x="184" y="341" as="targetPoint" />
          </mxGeometry>
        </mxCell>
        <mxCell id="3ctJaNdtZ0v_ihHX1uUk-44" value="" style="endArrow=none;html=1;rounded=0;entryX=0;entryY=1;entryDx=0;entryDy=0;" edge="1" parent="1" source="3ctJaNdtZ0v_ihHX1uUk-10" target="3ctJaNdtZ0v_ihHX1uUk-12">
          <mxGeometry width="50" height="50" relative="1" as="geometry">
            <mxPoint x="280" y="379" as="sourcePoint" />
            <mxPoint x="280" y="350" as="targetPoint" />
          </mxGeometry>
        </mxCell>
        <mxCell id="3ctJaNdtZ0v_ihHX1uUk-45" value="" style="endArrow=none;html=1;rounded=0;entryX=0;entryY=1;entryDx=0;entryDy=0;exitX=1;exitY=0.5;exitDx=0;exitDy=0;" edge="1" parent="1" source="3ctJaNdtZ0v_ihHX1uUk-17" target="3ctJaNdtZ0v_ihHX1uUk-14">
          <mxGeometry width="50" height="50" relative="1" as="geometry">
            <mxPoint x="290" y="389" as="sourcePoint" />
            <mxPoint x="290" y="360" as="targetPoint" />
          </mxGeometry>
        </mxCell>
        <mxCell id="3ctJaNdtZ0v_ihHX1uUk-46" value="" style="endArrow=none;html=1;rounded=0;entryX=-0.02;entryY=0.36;entryDx=0;entryDy=0;entryPerimeter=0;" edge="1" parent="1">
          <mxGeometry width="50" height="50" relative="1" as="geometry">
            <mxPoint x="712" y="144" as="sourcePoint" />
            <mxPoint x="740" y="152" as="targetPoint" />
          </mxGeometry>
        </mxCell>
        <mxCell id="3ctJaNdtZ0v_ihHX1uUk-47" value="" style="endArrow=none;html=1;rounded=0;entryX=0.75;entryY=1;entryDx=0;entryDy=0;exitX=0.5;exitY=0.1;exitDx=0;exitDy=0;exitPerimeter=0;" edge="1" parent="1">
          <mxGeometry width="50" height="50" relative="1" as="geometry">
            <mxPoint x="710" y="205" as="sourcePoint" />
            <mxPoint x="687.5" y="165" as="targetPoint" />
            <Array as="points">
              <mxPoint x="710" y="205" />
            </Array>
          </mxGeometry>
        </mxCell>
        <mxCell id="3ctJaNdtZ0v_ihHX1uUk-48" value="" style="endArrow=none;html=1;rounded=0;entryX=0.411;entryY=-0.075;entryDx=0;entryDy=0;entryPerimeter=0;" edge="1" parent="1">
          <mxGeometry width="50" height="50" relative="1" as="geometry">
            <mxPoint x="627.3903411479068" y="90.43915546022254" as="sourcePoint" />
            <mxPoint x="656.99" y="129" as="targetPoint" />
          </mxGeometry>
        </mxCell>
        <mxCell id="3ctJaNdtZ0v_ihHX1uUk-51" value="" style="endArrow=none;html=1;rounded=0;exitX=0.07;exitY=0.66;exitDx=0;exitDy=0;exitPerimeter=0;entryX=1;entryY=0.5;entryDx=0;entryDy=0;" edge="1" parent="1" source="3ctJaNdtZ0v_ihHX1uUk-20" target="3ctJaNdtZ0v_ihHX1uUk-19">
          <mxGeometry width="50" height="50" relative="1" as="geometry">
            <mxPoint x="637.3903411479068" y="100.43915546022254" as="sourcePoint" />
            <mxPoint x="660" y="350" as="targetPoint" />
          </mxGeometry>
        </mxCell>
        <mxCell id="3ctJaNdtZ0v_ihHX1uUk-52" value="" style="endArrow=none;html=1;rounded=0;exitX=0;exitY=0;exitDx=0;exitDy=0;entryX=1;entryY=1;entryDx=0;entryDy=0;" edge="1" parent="1" source="3ctJaNdtZ0v_ihHX1uUk-21" target="3ctJaNdtZ0v_ihHX1uUk-19">
          <mxGeometry width="50" height="50" relative="1" as="geometry">
            <mxPoint x="707" y="373" as="sourcePoint" />
            <mxPoint x="670" y="390" as="targetPoint" />
          </mxGeometry>
        </mxCell>
        <mxCell id="3ctJaNdtZ0v_ihHX1uUk-53" value="" style="endArrow=none;html=1;rounded=0;exitX=0.5;exitY=1;exitDx=0;exitDy=0;" edge="1" parent="1" source="3ctJaNdtZ0v_ihHX1uUk-19" target="3ctJaNdtZ0v_ihHX1uUk-22">
          <mxGeometry width="50" height="50" relative="1" as="geometry">
            <mxPoint x="717" y="383" as="sourcePoint" />
            <mxPoint x="680" y="400" as="targetPoint" />
          </mxGeometry>
        </mxCell>
        <mxCell id="3ctJaNdtZ0v_ihHX1uUk-54" value="&lt;b&gt;&lt;font style=&quot;font-size: 14px;&quot;&gt;Fig. ERD for Social Media Platform&lt;/font&gt;&lt;/b&gt;" style="text;html=1;align=center;verticalAlign=middle;resizable=0;points=[];autosize=1;strokeColor=none;fillColor=none;" vertex="1" parent="1">
          <mxGeometry x="260" y="470" width="250" height="30" as="geometry" />
        </mxCell>
      </root>
    </mxGraphModel>
  </diagram>
</mxfile>
